<?xml version="1.0" encoding="UTF-8" standalone="no"?>
<svg
   xmlns:dc="http://purl.org/dc/elements/1.1/"
   xmlns:cc="http://creativecommons.org/ns#"
   xmlns:rdf="http://www.w3.org/1999/02/22-rdf-syntax-ns#"
   xmlns:svg="http://www.w3.org/2000/svg"
   xmlns="http://www.w3.org/2000/svg"
   xmlns:sodipodi="http://sodipodi.sourceforge.net/DTD/sodipodi-0.dtd"
   xmlns:inkscape="http://www.inkscape.org/namespaces/inkscape"
   version="1.0"
   width="575"
   height="575"
   id="svg2"
   inkscape:version="0.91 r13725"
   sodipodi:docname="potablewater.svg">
  <metadata
     id="metadata12642">
    <rdf:RDF>
      <cc:Work
         rdf:about="">
        <dc:format>image/svg+xml</dc:format>
        <dc:type
           rdf:resource="http://purl.org/dc/dcmitype/StillImage" />
      </cc:Work>
    </rdf:RDF>
  </metadata>
  <sodipodi:namedview
     pagecolor="#ffffff"
     bordercolor="#666666"
     borderopacity="1"
     objecttolerance="10"
     gridtolerance="10"
     guidetolerance="10"
     inkscape:pageopacity="0"
     inkscape:pageshadow="2"
     inkscape:window-width="1916"
     inkscape:window-height="1035"
     id="namedview12640"
     showgrid="false"
     inkscape:zoom="0.62244365"
     inkscape:cx="287.5"
     inkscape:cy="287.5"
     inkscape:window-x="4"
     inkscape:window-y="1"
     inkscape:window-maximized="1"
     inkscape:current-layer="svg2" />
  <defs
     id="defs16" />
  <g
     transform="translate(-107.23,-241.31)"
     id="g12633" />
  <g
     id="g13271">
    <path
       id="path12635"
       style="fill:#ffffff;stroke:#000000;stroke-width:0.1;stroke-linecap:square;stroke-miterlimit:4"
       transform="matrix(7.9719,0,0,8.7691,932.97,-814.17)"
       d="M -45.024,125.63 C -45.024,143.68 -61.118,158.31 -80.971,158.31 -100.82,158.31 -116.92,143.68 -116.92,125.63 -116.92,107.58 -100.82,92.951 -80.971,92.951 -61.118,92.951 -45.024,107.58 -45.024,125.63 z" />
    <path
       sodipodi:nodetypes="sccscccccccscccscccccccccccsccccccccsssccsssscccscccccscccccccsccccsssscccccccccccccccssccccccccsssscc"
       inkscape:connector-curvature="0"
       id="path12637"
       d="m 346.14062,126.9707 c -36.21,0 -37.63023,0.13977 -41.24023,4.00977 -4.8,5.12 -4.77945,12.47961 0.0605,18.59961 3.35,4.25 5.10906,4.82031 14.78906,4.82031 l 10.99023,0 -0.56054,7.76953 -0.56055,7.76953 -40.39844,1.05078 c -45.3,1.18 -49.30101,2.05 -61.04101,13.25 l -7.76953,7.42969 0.3164,0.32813 c -3.65242,3.78624 -12.75255,13.60028 -15.71875,20.5664 -2.55505,6.00057 -3.55315,16.76212 -3.94531,23.4668 -1.19778,4.44662 -1.22818,20.53988 0.23828,27.83789 l 1.14844,5.71094 15.27148,0 c 8.4,0 15.65868,-0.63039 16.13868,-1.40039 0.11748,-0.19035 -0.10523,-0.72391 -0.5293,-1.44922 l 6.66211,-21.98047 7.69531,-13.99414 4.16797,-7.91992 c 1.69542,0.21464 4.73668,-1.20214 8.29492,-3.89649 5.9,-4.49 8.64914,-5.19953 22.11914,-5.76953 14.11,-0.6 15.94,-0.26015 22.25,4.08985 3.78,2.61 11.38039,6.38109 16.90039,8.37109 14.89,5.39 37.61938,4.44008 51.85938,-2.16992 5.84,-2.71 11.89117,-6.19024 13.45117,-7.74024 2.29,-2.28 7.90008,-2.82031 29.33008,-2.82031 l 26.49023,0 0,-41.98047 -40.86133,-0.49023 -40.85937,-0.49024 0,-14.6289 11.65039,-0.91993 c 9.36,-0.74 12.33039,-1.77046 15.15039,-5.23046 4.56,-5.6 4.45977,-13.15969 -0.24024,-18.17969 -3.61999,-3.87 -5.03,-4.00977 -41.25,-4.00977 z M 147.78906,280.55078 c -1.13,0 -6.40851,1.27961 -11.72851,2.84961 -7.3,2.16 -9.39985,3.54016 -8.58985,5.66016 0.6,1.54 1.58899,4.98039 2.20899,7.65039 0.63,2.68 5.08062,18.43929 9.89062,35.02929 4.81,16.59 13.89946,48.27063 20.18946,70.39063 6.29,22.12 11.8,40.83984 12.25,41.58984 0.45,0.75 29.66015,1.36914 64.91015,1.36914 l 64.08985,0 2.09961,-7.76953 c 1.16,-4.27 6.55976,-23.28953 12.00976,-42.26953 5.45,-18.97 9.91016,-35.81016 9.91016,-37.41016 0,-0.29428 -0.13482,-0.69441 -0.32422,-1.13671 l 6.94531,-25.69336 8.39649,-23.08985 -0.21094,-1.37304 c 2.54542,-6.28001 5.54593,-19.04117 4.16406,-20.25782 -2.345,-2.05625 -14.835,-5.10047 -19.30078,-4.97851 -0.63797,0.0174 -1.11164,0.0991 -1.36914,0.25781 -1.31723,0.81235 -1.9628,2.1506 -2.00586,3.8457 l -7.16602,26.70313 -12.59375,-4.19727 -9.79687,-2.09961 c -9.49959,-3.44544 -19.35911,-7.27093 -31.80496,-4.58054 -7.03,-0.48 -12.19207,4.07015 -23.40207,10.68015 -6.74,3.97 -14.08078,7.21875 -16.30078,7.21875 -2.23,0 -8.27899,-2.36953 -13.45899,-5.26953 -12.66,-7.09 -20.07984,-9.24906 -37.08984,-10.78906 l -14.3711,-1.31055 -2.75,-10.50976 c -1.51,-5.78 -3.67078,-10.50977 -4.80078,-10.50977 z m 117.37696,33.68164 c 3.11207,-8.3e-4 6.17265,0.60039 9.5039,1.72852 4.83,1.64 9.48914,2.97851 10.36914,2.97851 0.19957,0 0.33051,-0.063 0.41406,-0.16797 l 8.41407,2.24414 16.79297,4.89649 0,0.69922 -2.79883,7.69726 -3.78125,0.8418 c -0.5922,-0.56918 -1.47508,-0.97766 -2.4707,-1.05078 -1.76,-0.14 -10.10883,-2.03875 -18.54883,-4.21875 -18.12,-4.69 -24.71993,-3.69031 -44.16993,6.67969 -10.44999,5.57 -13.29984,6.31875 -20.83984,5.46875 -5.13,-0.57 -13.6614,-3.71867 -20.6914,-7.63868 -8.70001,-4.84 -14.98954,-6.93015 -23.01954,-7.66015 -11.22,-1.01 -16.17046,-4.69063 -13.98046,-10.39063 1.71,-4.43 24.50062,0.23946 41.14062,8.43946 17.89,8.82 23.07992,8.69023 38.91992,-1.00977 10.80063,-6.62062 17.89954,-9.53527 24.7461,-9.53711 z m -94.58204,24.64453 c 4.83587,-0.10522 14.08563,2.76157 23.76563,7.77344 20.75,10.74 30.42976,10.77039 51.75977,0.15039 8.55998,-4.26 18.04031,-7.72164 21.07031,-7.68164 5.58,0.07 32.98094,7.47141 34.96093,9.44141 0.95,0.95 -5.22031,25.07875 -15.32031,59.96875 l 0,-0.01 -3.43945,11.89063 -47.12109,0.49023 c -25.92,0.27 -47.11915,0.1693 -47.11915,-0.2207 0,-0.39 -4.96148,-18.0693 -11.02148,-39.2793 -6.06,-21.21 -11.01953,-39.42094 -11.01953,-40.46094 0,-1.35312 1.28625,-2.01467 3.48437,-2.0625 z"
       style="fill:#000000" />
    <g
       transform="translate(514.6638,118.76726)"
       id="g13255">
      <ellipse
         style="opacity:1;fill:none;fill-opacity:1;stroke:#3cc62d;stroke-width:38.85168457;stroke-linecap:round;stroke-linejoin:round;stroke-miterlimit:4;stroke-dasharray:none;stroke-opacity:1"
         id="path7859"
         cx="-227.54219"
         cy="169.09256"
         rx="258.61865"
         ry="258.61868" />
    </g>
  </g>
</svg>
